<svg height="3486" width="720" xmlns="http://www.w3.org/2000/svg">
<rect height="3486" fill="#555" width="720"></rect>
<text fill="#7f7" font-family="Courier New" font-size="12" xml:space="preserve">
<tspan x="10" y="26"></tspan>
<tspan x="10" y="42">&gt; npmdoc-castnow@0.0.1 test /home/travis/build/npmdoc/node-npmdoc-castnow</tspan>
<tspan x="10" y="58">&gt; (set -e; export PORT=$(utility2 shServerPortRandom); utility2 test test.js)</tspan>
<tspan x="10" y="74"></tspan>
<tspan x="10" y="90"></tspan>
<tspan x="10" y="106">[MODE_BUILD=npmTest] - 2017-04-07T22:17:13Z - npm-testing /home/travis/build/npmdoc/node-npmdoc-\</tspan>
<tspan x="10" y="122">castnow</tspan>
<tspan x="10" y="138"></tspan>
<tspan x="10" y="154"></tspan>
<tspan x="10" y="170">covering $ /home/travis/.nvm/versions/node/v6.10.2/bin/node /home/travis/build/npmdoc/node-npmdo\</tspan>
<tspan x="10" y="186">c-castnow/test.js</tspan>
<tspan x="10" y="202">merging file:///home/travis/build/npmdoc/node-npmdoc-castnow/tmp/build/test-report.json to test-\</tspan>
<tspan x="10" y="218">report</tspan>
<tspan x="10" y="234">&gt; server listening on http-port 55345</tspan>
<tspan x="10" y="250">created apidoc file:///home/travis/build/npmdoc/node-npmdoc-castnow/tmp/build/apidoc.html</tspan>
<tspan x="10" y="266"></tspan>
<tspan x="10" y="282"></tspan>
<tspan x="10" y="298">browserTest - created electron entry-page /home/travis/build/npmdoc/node-npmdoc-castnow/tmp/elec\</tspan>
<tspan x="10" y="314">tron.15b4a7e2dea0.2cb729bb7132e.html</tspan>
<tspan x="10" y="330"></tspan>
<tspan x="10" y="346">[node test-case 1 of 6 passed] - testCase_buildLib_default</tspan>
<tspan x="10" y="362">[node test-case 2 of 6 passed] - testCase_buildReadme_default</tspan>
<tspan x="10" y="378">[node test-case 3 of 6 passed] - testCase_buildTest_default</tspan>
<tspan x="10" y="394"></tspan>
<tspan x="10" y="410">browserTest - created electron entry-page /home/travis/build/npmdoc/node-npmdoc-castnow/tmp/elec\</tspan>
<tspan x="10" y="426">tron.15b4a7e2e1a0.7f5a1bed8bdf.html</tspan>
<tspan x="10" y="442"></tspan>
<tspan x="10" y="458">Xlib:  extension "RANDR" missing on display ":99.0".</tspan>
<tspan x="10" y="474">Xlib:  extension "RANDR" missing on display ":99.0".</tspan>
<tspan x="10" y="490"></tspan>
<tspan x="10" y="506">  State     : Scanning.</tspan>
<tspan x="10" y="522"></tspan>
<tspan x="10" y="538">&gt; server listening on http-port 59038</tspan>
<tspan x="10" y="554">[1000D[0K[1A[1000D[0K[1A[1000D[0K[1A[1000D[0K</tspan>
<tspan x="10" y="570">  State     : Scanning..</tspan>
<tspan x="10" y="586"></tspan>
<tspan x="10" y="602">merging file:///home/travis/build/npmdoc/node-npmdoc-castnow/tmp/build/test-report.json to test-\</tspan>
<tspan x="10" y="618">report</tspan>
<tspan x="10" y="634">merging file:///home/travis/build/npmdoc/node-npmdoc-castnow/tmp/build/test-report.json to test-\</tspan>
<tspan x="10" y="650">report</tspan>
<tspan x="10" y="666">Xlib:  extension "RANDR" missing on display ":99.0".</tspan>
<tspan x="10" y="682">[4909:0407/221715:WARNING:audio_manager.cc(314)] Multiple instances of AudioManager detected</tspan>
<tspan x="10" y="698">[4909:0407/221715:WARNING:audio_manager.cc(275)] Multiple instances of AudioManager detected</tspan>
<tspan x="10" y="714">Xlib:  extension "RANDR" missing on display ":99.0".</tspan>
<tspan x="10" y="730">[4907:0407/221715:WARNING:audio_manager.cc(314)] Multiple instances of AudioManager detected</tspan>
<tspan x="10" y="746">[4907:0407/221715:WARNING:audio_manager.cc(275)] Multiple instances of AudioManager detected</tspan>
<tspan x="10" y="762">[4943:0407/221715:ERROR:sandbox_linux.cc(343)] InitializeSandbox() called with multiple threads \</tspan>
<tspan x="10" y="778">in process gpu-process. </tspan>
<tspan x="10" y="794">[4959:0407/221715:ERROR:sandbox_linux.cc(343)] InitializeSandbox() called with multiple threads \</tspan>
<tspan x="10" y="810">in process gpu-process. </tspan>
<tspan x="10" y="826">[4909:0407/221715:ERROR:browser_gpu_channel_host_factory.cc(131)] Failed to create channel.</tspan>
<tspan x="10" y="842">[4907:0407/221715:ERROR:browser_gpu_channel_host_factory.cc(131)] Failed to create channel.</tspan>
<tspan x="10" y="858">[1000D[0K[1A[1000D[0K[1A[1000D[0K[1A[1000D[0K</tspan>
<tspan x="10" y="874">  State     : Scanning...</tspan>
<tspan x="10" y="890"></tspan>
<tspan x="10" y="906"></tspan>
<tspan x="10" y="922">browserTest - opened url /home/travis/build/npmdoc/node-npmdoc-castnow/tmp/build/apidoc.html</tspan>
<tspan x="10" y="938"></tspan>
<tspan x="10" y="954">[1000D[0K[1A[1000D[0K[1A[1000D[0K[1A[1000D[0K</tspan>
<tspan x="10" y="970">  State     : Scanning....</tspan>
<tspan x="10" y="986"></tspan>
<tspan x="10" y="1002"></tspan>
<tspan x="10" y="1018">browserTest - opened url http://127.0.0.1:55345?modeTest=1</tspan>
<tspan x="10" y="1034"></tspan>
<tspan x="10" y="1050">[1000D[0K[1A[1000D[0K[1A[1000D[0K[1A[1000D[0K</tspan>
<tspan x="10" y="1066">  State     : Scanning.</tspan>
<tspan x="10" y="1082"></tspan>
<tspan x="10" y="1098">[1000D[0K[1A[1000D[0K[1A[1000D[0K[1A[1000D[0K</tspan>
<tspan x="10" y="1114">  State     : Scanning..</tspan>
<tspan x="10" y="1130"></tspan>
<tspan x="10" y="1146">[1000D[0K[1A[1000D[0K[1A[1000D[0K[1A[1000D[0K</tspan>
<tspan x="10" y="1162">  State     : Scanning...</tspan>
<tspan x="10" y="1178"></tspan>
<tspan x="10" y="1194">[1000D[0K[1A[1000D[0K[1A[1000D[0K[1A[1000D[0K</tspan>
<tspan x="10" y="1210">  State     : Scanning....</tspan>
<tspan x="10" y="1226"></tspan>
<tspan x="10" y="1242">[4909:0407/221717:INFO:CONSOLE(249)] "----------|-----------|-----------|-----------|-----------\</tspan>
<tspan x="10" y="1258">|</tspan>
<tspan x="10" y="1274">File      |   % Stmts |% Branches |   % Funcs |   % Lines |</tspan>
<tspan x="10" y="1290">----------|-----------|-----------|-----------|-----------|</tspan>
<tspan x="10" y="1306">----------|-----------|-----------|-----------|-----------|</tspan>
<tspan x="10" y="1322">All files |       100 |       100 |       100 |       100 |</tspan>
<tspan x="10" y="1338">----------|-----------|-----------|-----------|-----------|</tspan>
<tspan x="10" y="1354">", source: file:///home/travis/build/npmdoc/node-npmdoc-castnow/tmp/electron.15b4a7e2e1a0.7f5a1b\</tspan>
<tspan x="10" y="1370">ed8bdf.html (249)</tspan>
<tspan x="10" y="1386">[4909:0407/221717:INFO:CONSOLE(249)] "created coverage file:///tmp/build/coverage.html/index.htm\</tspan>
<tspan x="10" y="1402">l", source: file:///home/travis/build/npmdoc/node-npmdoc-castnow/tmp/electron.15b4a7e2e1a0.7f5a1\</tspan>
<tspan x="10" y="1418">bed8bdf.html (249)</tspan>
<tspan x="10" y="1434">[1000D[0K[1A[1000D[0K[1A[1000D[0K[1A[1000D[0K</tspan>
<tspan x="10" y="1450">  State     : Scanning.</tspan>
<tspan x="10" y="1466"></tspan>
<tspan x="10" y="1482">[1000D[0K[1A[1000D[0K[1A[1000D[0K[1A[1000D[0K</tspan>
<tspan x="10" y="1498">  State     : Scanning..</tspan>
<tspan x="10" y="1514"></tspan>
<tspan x="10" y="1530">[1000D[0K[1A[1000D[0K[1A[1000D[0K[1A[1000D[0K</tspan>
<tspan x="10" y="1546">  State     : Scanning...</tspan>
<tspan x="10" y="1562"></tspan>
<tspan x="10" y="1578">[1000D[0K[1A[1000D[0K[1A[1000D[0K[1A[1000D[0K</tspan>
<tspan x="10" y="1594">  State     : Scanning....</tspan>
<tspan x="10" y="1610"></tspan>
<tspan x="10" y="1626">[1000D[0K[1A[1000D[0K[1A[1000D[0K[1A[1000D[0K</tspan>
<tspan x="10" y="1642">  State     : Scanning.</tspan>
<tspan x="10" y="1658"></tspan>
<tspan x="10" y="1674">[1000D[0K[1A[1000D[0K[1A[1000D[0K[1A[1000D[0K</tspan>
<tspan x="10" y="1690">  State     : Scanning..</tspan>
<tspan x="10" y="1706"></tspan>
<tspan x="10" y="1722">[1000D[0K[1A[1000D[0K[1A[1000D[0K[1A[1000D[0K</tspan>
<tspan x="10" y="1738">  State     : Scanning...</tspan>
<tspan x="10" y="1754"></tspan>
<tspan x="10" y="1770">[1000D[0K[1A[1000D[0K[1A[1000D[0K[1A[1000D[0K</tspan>
<tspan x="10" y="1786">  State     : Scanning....</tspan>
<tspan x="10" y="1802"></tspan>
<tspan x="10" y="1818">[1000D[0K[1A[1000D[0K[1A[1000D[0K[1A[1000D[0K</tspan>
<tspan x="10" y="1834">  State     : Scanning.</tspan>
<tspan x="10" y="1850"></tspan>
<tspan x="10" y="1866">[1000D[0K[1A[1000D[0K[1A[1000D[0K[1A[1000D[0K</tspan>
<tspan x="10" y="1882">  State     : Scanning..</tspan>
<tspan x="10" y="1898"></tspan>
<tspan x="10" y="1914">[node test-case 4 of 6 passed] - testCase_buildApp_default</tspan>
<tspan x="10" y="1930">[1000D[0K[1A[1000D[0K[1A[1000D[0K[1A[1000D[0K</tspan>
<tspan x="10" y="1946">  State     : Scanning...</tspan>
<tspan x="10" y="1962"></tspan>
<tspan x="10" y="1978">[1000D[0K[1A[1000D[0K[1A[1000D[0K[1A[1000D[0K</tspan>
<tspan x="10" y="1994">  State     : Scanning....</tspan>
<tspan x="10" y="2010"></tspan>
<tspan x="10" y="2026">[1000D[0K[1A[1000D[0K[1A[1000D[0K[1A[1000D[0K</tspan>
<tspan x="10" y="2042">  State     : Scanning.</tspan>
<tspan x="10" y="2058"></tspan>
<tspan x="10" y="2074">[1000D[0K[1A[1000D[0K[1A[1000D[0K[1A[1000D[0K</tspan>
<tspan x="10" y="2090">  State     : Scanning..</tspan>
<tspan x="10" y="2106"></tspan>
<tspan x="10" y="2122">[1000D[0K[1A[1000D[0K[1A[1000D[0K[1A[1000D[0K</tspan>
<tspan x="10" y="2138">  State     : Scanning...</tspan>
<tspan x="10" y="2154"></tspan>
<tspan x="10" y="2170">[1000D[0K[1A[1000D[0K[1A[1000D[0K[1A[1000D[0K</tspan>
<tspan x="10" y="2186">  State     : Scanning....</tspan>
<tspan x="10" y="2202"></tspan>
<tspan x="10" y="2218">[1000D[0K[1A[1000D[0K[1A[1000D[0K[1A[1000D[0K</tspan>
<tspan x="10" y="2234">  State     : Scanning.</tspan>
<tspan x="10" y="2250"></tspan>
<tspan x="10" y="2266">[1000D[0K[1A[1000D[0K[1A[1000D[0K[1A[1000D[0K</tspan>
<tspan x="10" y="2282">  State     : Scanning..</tspan>
<tspan x="10" y="2298"></tspan>
<tspan x="10" y="2314">[1000D[0K[1A[1000D[0K[1A[1000D[0K[1A[1000D[0K</tspan>
<tspan x="10" y="2330">  State     : Scanning...</tspan>
<tspan x="10" y="2346"></tspan>
<tspan x="10" y="2362">[1000D[0K[1A[1000D[0K[1A[1000D[0K[1A[1000D[0K</tspan>
<tspan x="10" y="2378">  State     : Scanning....</tspan>
<tspan x="10" y="2394"></tspan>
<tspan x="10" y="2410">[1000D[0K[1A[1000D[0K[1A[1000D[0K[1A[1000D[0K</tspan>
<tspan x="10" y="2426">  State     : Scanning.</tspan>
<tspan x="10" y="2442"></tspan>
<tspan x="10" y="2458">[1000D[0K[1A[1000D[0K[1A[1000D[0K[1A[1000D[0K</tspan>
<tspan x="10" y="2474">  State     : Scanning..</tspan>
<tspan x="10" y="2490"></tspan>
<tspan x="10" y="2506">[1000D[0K[1A[1000D[0K[1A[1000D[0K[1A[1000D[0K</tspan>
<tspan x="10" y="2522">  State     : Scanning...</tspan>
<tspan x="10" y="2538"></tspan>
<tspan x="10" y="2554">[1000D[0K[1A[1000D[0K[1A[1000D[0K[1A[1000D[0K</tspan>
<tspan x="10" y="2570">  State     : Scanning....</tspan>
<tspan x="10" y="2586"></tspan>
<tspan x="10" y="2602">[1000D[0K[1A[1000D[0K[1A[1000D[0K[1A[1000D[0K</tspan>
<tspan x="10" y="2618">  State     : Scanning.</tspan>
<tspan x="10" y="2634"></tspan>
<tspan x="10" y="2650">[1000D[0K[1A[1000D[0K[1A[1000D[0K[1A[1000D[0KError: device not found</tspan>
<tspan x="10" y="2666"></tspan>
<tspan x="10" y="2682">browserTest - exit-code 1 - /home/travis/build/npmdoc/node-npmdoc-castnow/tmp/build/apidoc.html</tspan>
<tspan x="10" y="2698"></tspan>
<tspan x="10" y="2714">[node test-case 5 of 6 passed] - testCase_buildApidoc_default</tspan>
<tspan x="10" y="2730"></tspan>
<tspan x="10" y="2746">browserTest - created screenCapture file:///home/travis/build/npmdoc/node-npmdoc-castnow/tmp/bui\</tspan>
<tspan x="10" y="2762">ld/screenCapture.%2F.png</tspan>
<tspan x="10" y="2778"></tspan>
<tspan x="10" y="2794">browserTest - created screenCapture file:///home/travis/build/npmdoc/node-npmdoc-castnow/tmp/bui\</tspan>
<tspan x="10" y="2810">ld/screenCapture.%2F.html</tspan>
<tspan x="10" y="2826"></tspan>
<tspan x="10" y="2842">browserTest - exit-code 0 - http://127.0.0.1:55345?modeTest=1</tspan>
<tspan x="10" y="2858"></tspan>
<tspan x="10" y="2874"></tspan>
<tspan x="10" y="2890">browserTest - merged coverage from /home/travis/build/npmdoc/node-npmdoc-castnow/tmp/coverage.%2\</tspan>
<tspan x="10" y="2906">F.json</tspan>
<tspan x="10" y="2922"></tspan>
<tspan x="10" y="2938"></tspan>
<tspan x="10" y="2954">browserTest - merging test-report from /home/travis/build/npmdoc/node-npmdoc-castnow/tmp/test-re\</tspan>
<tspan x="10" y="2970">port.%2F.json</tspan>
<tspan x="10" y="2986"></tspan>
<tspan x="10" y="3002">[node test-case 6 of 6 passed] - testCase_webpage_default</tspan>
<tspan x="10" y="3018">----------------------------|-----------|-----------|-----------|-----------|</tspan>
<tspan x="10" y="3034">File                        |   % Stmts |% Branches |   % Funcs |   % Lines |</tspan>
<tspan x="10" y="3050">----------------------------|-----------|-----------|-----------|-----------|</tspan>
<tspan x="10" y="3066">   node-npmdoc-castnow/     |       100 |       100 |       100 |       100 |</tspan>
<tspan x="10" y="3082">      example.js            |       100 |       100 |       100 |       100 |</tspan>
<tspan x="10" y="3098">      lib.npmdoc_castnow.js |       100 |       100 |       100 |       100 |</tspan>
<tspan x="10" y="3114">      test.js               |       100 |       100 |       100 |       100 |</tspan>
<tspan x="10" y="3130">----------------------------|-----------|-----------|-----------|-----------|</tspan>
<tspan x="10" y="3146">All files                   |       100 |       100 |       100 |       100 |</tspan>
<tspan x="10" y="3162">----------------------------|-----------|-----------|-----------|-----------|</tspan>
<tspan x="10" y="3178"></tspan>
<tspan x="10" y="3194">created coverage file:///home/travis/build/npmdoc/node-npmdoc-castnow/tmp/build/coverage.html/in\</tspan>
<tspan x="10" y="3210">dex.html</tspan>
<tspan x="10" y="3226">erging file:///home/travis/build/npmdoc/node-npmdoc-castnow/tmp/build/test-report.json to test-r\</tspan>
<tspan x="10" y="3242">eport</tspan>
<tspan x="10" y="3258"></tspan>
<tspan x="10" y="3274">-------------------------------------------------------</tspan>
<tspan x="10" y="3290">| test-report - buildNpmdoc - node - linux v6.10.2 - 2017-04-07T22:16:52.554Z</tspan>
<tspan x="10" y="3306">|   37379 ms            0 failed        6 passed      |</tspan>
<tspan x="10" y="3322">-------------------------------------------------------</tspan>
<tspan x="10" y="3338"></tspan>
<tspan x="10" y="3354">created test-report file:///home/travis/build/npmdoc/node-npmdoc-castnow/tmp/build/test-report.h\</tspan>
<tspan x="10" y="3370">tml</tspan>
<tspan x="10" y="3386"></tspan>
<tspan x="10" y="3402"></tspan>
<tspan x="10" y="3418">npmTest - 0 failed tests</tspan>
<tspan x="10" y="3434"></tspan>
<tspan x="10" y="3450"></tspan>
<tspan x="10" y="3466">[MODE_BUILD=npmTest] - 2017-04-07T22:17:32Z - EXIT_CODE - 0</tspan>
</text>
</svg>
