<svg height="3550" width="720" xmlns="http://www.w3.org/2000/svg">
<rect height="3550" fill="#555" width="720"></rect>
<text fill="#7f7" font-family="Courier New" font-size="12" xml:space="preserve">
<tspan x="10" y="26"></tspan>
<tspan x="10" y="42">&gt; npmdoc-castnow@0.0.2 test /home/travis/build/npmdoc/node-npmdoc-castnow</tspan>
<tspan x="10" y="58">&gt; (set -e; export PORT=$(utility2 shServerPortRandom); utility2 test test.js)</tspan>
<tspan x="10" y="74"></tspan>
<tspan x="10" y="90"></tspan>
<tspan x="10" y="106">[MODE_BUILD=npmTest] - 2017-04-08T09:04:02Z - npm-testing /home/travis/build/npmdoc/node-npmdoc-\</tspan>
<tspan x="10" y="122">castnow</tspan>
<tspan x="10" y="138"></tspan>
<tspan x="10" y="154"></tspan>
<tspan x="10" y="170">covering $ /home/travis/.nvm/versions/node/v6.10.2/bin/node /home/travis/build/npmdoc/node-npmdo\</tspan>
<tspan x="10" y="186">c-castnow/test.js</tspan>
<tspan x="10" y="202">merging file:///home/travis/build/npmdoc/node-npmdoc-castnow/tmp/build/test-report.json to test-\</tspan>
<tspan x="10" y="218">report</tspan>
<tspan x="10" y="234">&gt; server listening on http-port 48664</tspan>
<tspan x="10" y="250">created apidoc file:///home/travis/build/npmdoc/node-npmdoc-castnow/tmp/build/apidoc.html</tspan>
<tspan x="10" y="266"></tspan>
<tspan x="10" y="282"></tspan>
<tspan x="10" y="298">browserTest - created electron entry-page /home/travis/build/npmdoc/node-npmdoc-castnow/tmp/elec\</tspan>
<tspan x="10" y="314">tron.15b4cce5b3c0.8a23c4dedb833.html</tspan>
<tspan x="10" y="330"></tspan>
<tspan x="10" y="346">[node test-case 1 of 6 passed] - testCase_buildLib_default</tspan>
<tspan x="10" y="362">[node test-case 2 of 6 passed] - testCase_buildReadme_default</tspan>
<tspan x="10" y="378">[node test-case 3 of 6 passed] - testCase_buildTest_default</tspan>
<tspan x="10" y="394"></tspan>
<tspan x="10" y="410">browserTest - created electron entry-page /home/travis/build/npmdoc/node-npmdoc-castnow/tmp/elec\</tspan>
<tspan x="10" y="426">tron.15b4cce5b6d0.e4363effda471.html</tspan>
<tspan x="10" y="442"></tspan>
<tspan x="10" y="458">Xlib:  extension "RANDR" missing on display ":99.0".</tspan>
<tspan x="10" y="474">Xlib:  extension "RANDR" missing on display ":99.0".</tspan>
<tspan x="10" y="490"></tspan>
<tspan x="10" y="506">  State     : Scanning.</tspan>
<tspan x="10" y="522"></tspan>
<tspan x="10" y="538">[1000D[0K[1A[1000D[0K[1A[1000D[0K[1A[1000D[0K</tspan>
<tspan x="10" y="554">  State     : Scanning..</tspan>
<tspan x="10" y="570"></tspan>
<tspan x="10" y="586">&gt; server listening on http-port 41645</tspan>
<tspan x="10" y="602">[1000D[0K[1A[1000D[0K[1A[1000D[0K[1A[1000D[0K</tspan>
<tspan x="10" y="618">  State     : Scanning...</tspan>
<tspan x="10" y="634"></tspan>
<tspan x="10" y="650">merging file:///home/travis/build/npmdoc/node-npmdoc-castnow/tmp/build/test-report.json to test-\</tspan>
<tspan x="10" y="666">report</tspan>
<tspan x="10" y="682">merging file:///home/travis/build/npmdoc/node-npmdoc-castnow/tmp/build/test-report.json to test-\</tspan>
<tspan x="10" y="698">report</tspan>
<tspan x="10" y="714">Xlib:  extension "RANDR" missing on display ":99.0".</tspan>
<tspan x="10" y="730">Xlib:  extension "RANDR" missing on display ":99.0".</tspan>
<tspan x="10" y="746">[5708:0408/090405:WARNING:audio_manager.cc(314)] Multiple instances of AudioManager detected</tspan>
<tspan x="10" y="762">[5708:0408/090405:WARNING:audio_manager.cc(275)] Multiple instances of AudioManager detected</tspan>
<tspan x="10" y="778">[5745:0408/090405:ERROR:sandbox_linux.cc(343)] InitializeSandbox() called with multiple threads \</tspan>
<tspan x="10" y="794">in process gpu-process. </tspan>
<tspan x="10" y="810">[5713:0408/090405:WARNING:audio_manager.cc(314)] Multiple instances of AudioManager detected</tspan>
<tspan x="10" y="826">[5713:0408/090405:WARNING:audio_manager.cc(275)] Multiple instances of AudioManager detected</tspan>
<tspan x="10" y="842">[5764:0408/090405:ERROR:sandbox_linux.cc(343)] InitializeSandbox() called with multiple threads \</tspan>
<tspan x="10" y="858">in process gpu-process. </tspan>
<tspan x="10" y="874">[1000D[0K[1A[1000D[0K[1A[1000D[0K[1A[1000D[0K</tspan>
<tspan x="10" y="890">  State     : Scanning....</tspan>
<tspan x="10" y="906"></tspan>
<tspan x="10" y="922">[5708:0408/090405:ERROR:browser_gpu_channel_host_factory.cc(131)] Failed to create channel.</tspan>
<tspan x="10" y="938">[1000D[0K[1A[1000D[0K[1A[1000D[0K[1A[1000D[0K</tspan>
<tspan x="10" y="954">  State     : Scanning.</tspan>
<tspan x="10" y="970"></tspan>
<tspan x="10" y="986"></tspan>
<tspan x="10" y="1002">browserTest - opened url /home/travis/build/npmdoc/node-npmdoc-castnow/tmp/build/apidoc.html</tspan>
<tspan x="10" y="1018"></tspan>
<tspan x="10" y="1034"></tspan>
<tspan x="10" y="1050">browserTest - opened url http://127.0.0.1:48664?modeTest=1</tspan>
<tspan x="10" y="1066"></tspan>
<tspan x="10" y="1082">[1000D[0K[1A[1000D[0K[1A[1000D[0K[1A[1000D[0K</tspan>
<tspan x="10" y="1098">  State     : Scanning..</tspan>
<tspan x="10" y="1114"></tspan>
<tspan x="10" y="1130">[1000D[0K[1A[1000D[0K[1A[1000D[0K[1A[1000D[0K</tspan>
<tspan x="10" y="1146">  State     : Scanning...</tspan>
<tspan x="10" y="1162"></tspan>
<tspan x="10" y="1178">[1000D[0K[1A[1000D[0K[1A[1000D[0K[1A[1000D[0K</tspan>
<tspan x="10" y="1194">  State     : Scanning....</tspan>
<tspan x="10" y="1210"></tspan>
<tspan x="10" y="1226">[1000D[0K[1A[1000D[0K[1A[1000D[0K[1A[1000D[0K</tspan>
<tspan x="10" y="1242">  State     : Scanning.</tspan>
<tspan x="10" y="1258"></tspan>
<tspan x="10" y="1274">[1000D[0K[1A[1000D[0K[1A[1000D[0K[1A[1000D[0K</tspan>
<tspan x="10" y="1290">  State     : Scanning..</tspan>
<tspan x="10" y="1306"></tspan>
<tspan x="10" y="1322">[5713:0408/090407:INFO:CONSOLE(248)] "----------|-----------|-----------|-----------|-----------\</tspan>
<tspan x="10" y="1338">|</tspan>
<tspan x="10" y="1354">File      |   % Stmts |% Branches |   % Funcs |   % Lines |</tspan>
<tspan x="10" y="1370">----------|-----------|-----------|-----------|-----------|</tspan>
<tspan x="10" y="1386">----------|-----------|-----------|-----------|-----------|</tspan>
<tspan x="10" y="1402">All files |       100 |       100 |       100 |       100 |</tspan>
<tspan x="10" y="1418">----------|-----------|-----------|-----------|-----------|</tspan>
<tspan x="10" y="1434">", source: file:///home/travis/build/npmdoc/node-npmdoc-castnow/tmp/electron.15b4cce5b6d0.e4363e\</tspan>
<tspan x="10" y="1450">ffda471.html (248)</tspan>
<tspan x="10" y="1466">[5713:0408/090407:INFO:CONSOLE(248)] "created coverage file:///tmp/build/coverage.html/index.htm\</tspan>
<tspan x="10" y="1482">l", source: file:///home/travis/build/npmdoc/node-npmdoc-castnow/tmp/electron.15b4cce5b6d0.e4363\</tspan>
<tspan x="10" y="1498">effda471.html (248)</tspan>
<tspan x="10" y="1514">[1000D[0K[1A[1000D[0K[1A[1000D[0K[1A[1000D[0K</tspan>
<tspan x="10" y="1530">  State     : Scanning...</tspan>
<tspan x="10" y="1546"></tspan>
<tspan x="10" y="1562">[1000D[0K[1A[1000D[0K[1A[1000D[0K[1A[1000D[0K</tspan>
<tspan x="10" y="1578">  State     : Scanning....</tspan>
<tspan x="10" y="1594"></tspan>
<tspan x="10" y="1610">[1000D[0K[1A[1000D[0K[1A[1000D[0K[1A[1000D[0K</tspan>
<tspan x="10" y="1626">  State     : Scanning.</tspan>
<tspan x="10" y="1642"></tspan>
<tspan x="10" y="1658">[1000D[0K[1A[1000D[0K[1A[1000D[0K[1A[1000D[0K</tspan>
<tspan x="10" y="1674">  State     : Scanning..</tspan>
<tspan x="10" y="1690"></tspan>
<tspan x="10" y="1706">[1000D[0K[1A[1000D[0K[1A[1000D[0K[1A[1000D[0K</tspan>
<tspan x="10" y="1722">  State     : Scanning...</tspan>
<tspan x="10" y="1738"></tspan>
<tspan x="10" y="1754">[1000D[0K[1A[1000D[0K[1A[1000D[0K[1A[1000D[0K</tspan>
<tspan x="10" y="1770">  State     : Scanning....</tspan>
<tspan x="10" y="1786"></tspan>
<tspan x="10" y="1802">[1000D[0K[1A[1000D[0K[1A[1000D[0K[1A[1000D[0K</tspan>
<tspan x="10" y="1818">  State     : Scanning.</tspan>
<tspan x="10" y="1834"></tspan>
<tspan x="10" y="1850">[1000D[0K[1A[1000D[0K[1A[1000D[0K[1A[1000D[0K</tspan>
<tspan x="10" y="1866">  State     : Scanning..</tspan>
<tspan x="10" y="1882"></tspan>
<tspan x="10" y="1898">[node test-case 4 of 6 passed] - testCase_buildApp_default</tspan>
<tspan x="10" y="1914">[1000D[0K[1A[1000D[0K[1A[1000D[0K[1A[1000D[0K</tspan>
<tspan x="10" y="1930">  State     : Scanning...</tspan>
<tspan x="10" y="1946"></tspan>
<tspan x="10" y="1962">[1000D[0K[1A[1000D[0K[1A[1000D[0K[1A[1000D[0K</tspan>
<tspan x="10" y="1978">  State     : Scanning....</tspan>
<tspan x="10" y="1994"></tspan>
<tspan x="10" y="2010">[1000D[0K[1A[1000D[0K[1A[1000D[0K[1A[1000D[0K</tspan>
<tspan x="10" y="2026">  State     : Scanning.</tspan>
<tspan x="10" y="2042"></tspan>
<tspan x="10" y="2058">[1000D[0K[1A[1000D[0K[1A[1000D[0K[1A[1000D[0K</tspan>
<tspan x="10" y="2074">  State     : Scanning..</tspan>
<tspan x="10" y="2090"></tspan>
<tspan x="10" y="2106">[1000D[0K[1A[1000D[0K[1A[1000D[0K[1A[1000D[0K</tspan>
<tspan x="10" y="2122">  State     : Scanning...</tspan>
<tspan x="10" y="2138"></tspan>
<tspan x="10" y="2154">[1000D[0K[1A[1000D[0K[1A[1000D[0K[1A[1000D[0K</tspan>
<tspan x="10" y="2170">  State     : Scanning....</tspan>
<tspan x="10" y="2186"></tspan>
<tspan x="10" y="2202">[1000D[0K[1A[1000D[0K[1A[1000D[0K[1A[1000D[0K</tspan>
<tspan x="10" y="2218">  State     : Scanning.</tspan>
<tspan x="10" y="2234"></tspan>
<tspan x="10" y="2250">[1000D[0K[1A[1000D[0K[1A[1000D[0K[1A[1000D[0K</tspan>
<tspan x="10" y="2266">  State     : Scanning..</tspan>
<tspan x="10" y="2282"></tspan>
<tspan x="10" y="2298">[1000D[0K[1A[1000D[0K[1A[1000D[0K[1A[1000D[0K</tspan>
<tspan x="10" y="2314">  State     : Scanning...</tspan>
<tspan x="10" y="2330"></tspan>
<tspan x="10" y="2346">[1000D[0K[1A[1000D[0K[1A[1000D[0K[1A[1000D[0K</tspan>
<tspan x="10" y="2362">  State     : Scanning....</tspan>
<tspan x="10" y="2378"></tspan>
<tspan x="10" y="2394">[1000D[0K[1A[1000D[0K[1A[1000D[0K[1A[1000D[0K</tspan>
<tspan x="10" y="2410">  State     : Scanning.</tspan>
<tspan x="10" y="2426"></tspan>
<tspan x="10" y="2442">[1000D[0K[1A[1000D[0K[1A[1000D[0K[1A[1000D[0K</tspan>
<tspan x="10" y="2458">  State     : Scanning..</tspan>
<tspan x="10" y="2474"></tspan>
<tspan x="10" y="2490">[1000D[0K[1A[1000D[0K[1A[1000D[0K[1A[1000D[0K</tspan>
<tspan x="10" y="2506">  State     : Scanning...</tspan>
<tspan x="10" y="2522"></tspan>
<tspan x="10" y="2538">[1000D[0K[1A[1000D[0K[1A[1000D[0K[1A[1000D[0K</tspan>
<tspan x="10" y="2554">  State     : Scanning....</tspan>
<tspan x="10" y="2570"></tspan>
<tspan x="10" y="2586">[1000D[0K[1A[1000D[0K[1A[1000D[0K[1A[1000D[0KError: device not found</tspan>
<tspan x="10" y="2602"></tspan>
<tspan x="10" y="2618">browserTest - created screenCapture file:///home/travis/build/npmdoc/node-npmdoc-castnow/tmp/bui\</tspan>
<tspan x="10" y="2634">ld/screenCapture.npmTest.browser.%2Fhome%2Ftravis%2Fbuild%2Fnpmdoc%2Fnode-npmdoc-castnow%2Ftmp%2\</tspan>
<tspan x="10" y="2650">Fbuild%2Fapidoc.html.png</tspan>
<tspan x="10" y="2666"></tspan>
<tspan x="10" y="2682">browserTest - created screenCapture file:///home/travis/build/npmdoc/node-npmdoc-castnow/tmp/bui\</tspan>
<tspan x="10" y="2698">ld/screenCapture.npmTest.browser.%2Fhome%2Ftravis%2Fbuild%2Fnpmdoc%2Fnode-npmdoc-castnow%2Ftmp%2\</tspan>
<tspan x="10" y="2714">Fbuild%2Fapidoc.html.html</tspan>
<tspan x="10" y="2730"></tspan>
<tspan x="10" y="2746">browserTest - exit-code 0 - /home/travis/build/npmdoc/node-npmdoc-castnow/tmp/build/apidoc.html</tspan>
<tspan x="10" y="2762"></tspan>
<tspan x="10" y="2778">[node test-case 5 of 6 passed] - testCase_buildApidoc_default</tspan>
<tspan x="10" y="2794"></tspan>
<tspan x="10" y="2810">browserTest - created screenCapture file:///home/travis/build/npmdoc/node-npmdoc-castnow/tmp/bui\</tspan>
<tspan x="10" y="2826">ld/screenCapture.npmTest.browser.%2F.png</tspan>
<tspan x="10" y="2842"></tspan>
<tspan x="10" y="2858">browserTest - created screenCapture file:///home/travis/build/npmdoc/node-npmdoc-castnow/tmp/bui\</tspan>
<tspan x="10" y="2874">ld/screenCapture.npmTest.browser.%2F.html</tspan>
<tspan x="10" y="2890"></tspan>
<tspan x="10" y="2906">browserTest - exit-code 0 - http://127.0.0.1:48664?modeTest=1</tspan>
<tspan x="10" y="2922"></tspan>
<tspan x="10" y="2938"></tspan>
<tspan x="10" y="2954">browserTest - merged coverage from /home/travis/build/npmdoc/node-npmdoc-castnow/tmp/coverage.np\</tspan>
<tspan x="10" y="2970">mTest.browser.%2F.json</tspan>
<tspan x="10" y="2986"></tspan>
<tspan x="10" y="3002"></tspan>
<tspan x="10" y="3018">browserTest - merging test-report from /home/travis/build/npmdoc/node-npmdoc-castnow/tmp/test-re\</tspan>
<tspan x="10" y="3034">port.npmTest.browser.%2F.json</tspan>
<tspan x="10" y="3050"></tspan>
<tspan x="10" y="3066">[node test-case 6 of 6 passed] - testCase_webpage_default</tspan>
<tspan x="10" y="3082">----------------------------|-----------|-----------|-----------|-----------|</tspan>
<tspan x="10" y="3098">File                        |   % Stmts |% Branches |   % Funcs |   % Lines |</tspan>
<tspan x="10" y="3114">----------------------------|-----------|-----------|-----------|-----------|</tspan>
<tspan x="10" y="3130">   node-npmdoc-castnow/     |       100 |       100 |       100 |       100 |</tspan>
<tspan x="10" y="3146">      example.js            |       100 |       100 |       100 |       100 |</tspan>
<tspan x="10" y="3162">      lib.npmdoc_castnow.js |       100 |       100 |       100 |       100 |</tspan>
<tspan x="10" y="3178">      test.js               |       100 |       100 |       100 |       100 |</tspan>
<tspan x="10" y="3194">----------------------------|-----------|-----------|-----------|-----------|</tspan>
<tspan x="10" y="3210">All files                   |       100 |       100 |       100 |       100 |</tspan>
<tspan x="10" y="3226">----------------------------|-----------|-----------|-----------|-----------|</tspan>
<tspan x="10" y="3242"></tspan>
<tspan x="10" y="3258">created coverage file:///home/travis/build/npmdoc/node-npmdoc-castnow/tmp/build/coverage.html/in\</tspan>
<tspan x="10" y="3274">dex.html</tspan>
<tspan x="10" y="3290">erging file:///home/travis/build/npmdoc/node-npmdoc-castnow/tmp/build/test-report.json to test-r\</tspan>
<tspan x="10" y="3306">eport</tspan>
<tspan x="10" y="3322"></tspan>
<tspan x="10" y="3338">-------------------------------------------------------</tspan>
<tspan x="10" y="3354">| test-report - buildNpmdoc - node - linux v6.10.2 - 2017-04-08T09:03:23.833Z</tspan>
<tspan x="10" y="3370">|   55254 ms            0 failed        6 passed      |</tspan>
<tspan x="10" y="3386">-------------------------------------------------------</tspan>
<tspan x="10" y="3402"></tspan>
<tspan x="10" y="3418">created test-report file:///home/travis/build/npmdoc/node-npmdoc-castnow/tmp/build/test-report.h\</tspan>
<tspan x="10" y="3434">tml</tspan>
<tspan x="10" y="3450"></tspan>
<tspan x="10" y="3466"></tspan>
<tspan x="10" y="3482">npmTest - 0 failed tests</tspan>
<tspan x="10" y="3498"></tspan>
<tspan x="10" y="3514"></tspan>
<tspan x="10" y="3530">[MODE_BUILD=npmTest] - 2017-04-08T09:04:22Z - EXIT_CODE - 0</tspan>
</text>
</svg>
